<svg xmlns="http://www.w3.org/2000/svg" width="132" height="33" viewBox="0 0 132 33" fill="none"><path d="M38.0801 26.8929H38.6115V28.5686H38.6264C38.7088 28.4271 38.8435 28.308 39.0081 28.2261C39.1653 28.1441 39.3524 28.0846 39.5545 28.0846C39.9437 28.0846 40.5723 28.308 40.5723 29.2315V30.8252H40.041V29.2836C40.041 28.8516 39.8688 28.4867 39.3674 28.4867C39.0231 28.4867 38.7537 28.7101 38.6564 28.9783C38.6264 29.0453 38.6189 29.1198 38.6189 29.2091V30.8252H38.0876V26.8855L38.0801 26.8929Z" fill="white"></path><path d="M42.3986 29.5741C42.4135 30.2369 42.8701 30.505 43.4015 30.505C43.7832 30.505 44.0077 30.4455 44.2098 30.3635L44.2996 30.7136C44.1125 30.788 43.7907 30.8774 43.3266 30.8774C42.4285 30.8774 41.8896 30.3337 41.8896 29.522C41.8896 28.7102 42.4061 28.0771 43.2593 28.0771C44.2098 28.0771 44.4642 28.8442 44.4642 29.3432C44.4642 29.44 44.4493 29.522 44.4493 29.5741H42.3986ZM43.9553 29.2241C43.9553 28.9113 43.8131 28.4346 43.2218 28.4346C42.683 28.4346 42.451 28.8889 42.4061 29.2241H43.9553Z" fill="white"></path><path d="M47.428 30.8326L47.3831 30.4975H47.3682C47.2035 30.706 46.8892 30.8996 46.4775 30.8996C45.8863 30.8996 45.5869 30.5198 45.5869 30.1251C45.5869 29.4772 46.2156 29.1197 47.3382 29.1271V29.075C47.3382 28.8516 47.2709 28.4568 46.6721 28.4568C46.4027 28.4568 46.1183 28.5313 45.9087 28.6579L45.789 28.3377C46.0285 28.1962 46.3802 28.0994 46.747 28.0994C47.6376 28.0994 47.8546 28.6579 47.8546 29.1942V30.1996C47.8546 30.4304 47.8696 30.6613 47.8996 30.8401H47.4206L47.428 30.8326ZM47.3532 29.4623C46.7769 29.4474 46.1183 29.5442 46.1183 30.0655C46.1183 30.3783 46.3503 30.5273 46.6197 30.5273C47.0014 30.5273 47.2409 30.3038 47.3233 30.0804C47.3382 30.0283 47.3532 29.9761 47.3532 29.924V29.4623Z" fill="white"></path><path d="M49.3965 26.8931H49.9279V30.8328H49.3965V26.8931Z" fill="white"></path><path d="M52.1429 27.3771V28.1442H52.9063V28.5165H52.1429V29.9614C52.1429 30.2965 52.2477 30.4827 52.5395 30.4827C52.6743 30.4827 52.779 30.4678 52.8464 30.4529L52.8688 30.8178C52.7641 30.8551 52.6069 30.8849 52.3973 30.8849C52.1504 30.8849 51.9483 30.8104 51.821 30.6763C51.6714 30.5348 51.619 30.2965 51.619 29.9763V28.5091H51.1699V28.1367H51.619V27.4962L52.1354 27.3696L52.1429 27.3771Z" fill="white"></path><path d="M54.1787 26.8929H54.7101V28.5686H54.7251C54.8074 28.4271 54.9421 28.308 55.1068 28.2261C55.2639 28.1441 55.451 28.0846 55.6531 28.0846C56.0423 28.0846 56.671 28.308 56.671 29.2315V30.8252H56.1396V29.2836C56.1396 28.8516 55.9675 28.4867 55.466 28.4867C55.1217 28.4867 54.8523 28.7101 54.755 28.9783C54.7251 29.0453 54.7176 29.1198 54.7176 29.2091V30.8252H54.1862V26.8855L54.1787 26.8929Z" fill="white"></path><path d="M62.7332 30.8328C62.6209 30.7285 62.5087 30.6243 62.3515 30.4679C61.9997 30.7658 61.6105 30.8924 61.1615 30.8924C60.3682 30.8924 59.9116 30.4008 59.9116 29.8423C59.9116 29.3284 60.2409 28.9858 60.705 28.7475V28.7326C60.4954 28.4868 60.3682 28.2187 60.3682 27.9506C60.3682 27.4963 60.7274 27.0271 61.401 27.0271C61.9099 27.0271 62.2991 27.3399 62.2991 27.8165C62.2991 28.2113 62.0521 28.5241 61.4085 28.8145V28.8294C61.7528 29.1943 62.1419 29.6039 62.3964 29.8721C62.5835 29.6114 62.7107 29.2539 62.7856 28.7773H63.2646C63.1598 29.3656 62.9802 29.8274 62.6808 30.1551C62.8978 30.3636 63.1074 30.5796 63.3469 30.8179H62.7182L62.7332 30.8328ZM62.097 30.1923C61.8575 29.9465 61.401 29.4922 60.9519 29.0156C60.7349 29.1422 60.428 29.3805 60.428 29.7752C60.428 30.1997 60.7723 30.5274 61.2588 30.5274C61.6105 30.5274 61.9024 30.3859 62.097 30.1849V30.1923ZM60.8621 27.9134C60.8621 28.1815 60.9968 28.3825 61.169 28.5836C61.5806 28.3677 61.8426 28.1666 61.8426 27.8538C61.8426 27.6229 61.7004 27.3697 61.3711 27.3697C61.0417 27.3697 60.8546 27.6229 60.8546 27.9134H60.8621Z" fill="white"></path><path d="M66.6702 28.144L67.0594 29.5069C67.1417 29.8048 67.224 30.0804 67.2764 30.3634H67.2914C67.3588 30.0953 67.4561 29.8048 67.5534 29.5144L68.0324 28.144H68.4814L68.9305 29.4846C69.0352 29.8048 69.1251 30.0878 69.1924 30.3634H69.2074C69.2523 30.0953 69.3346 29.8123 69.4319 29.492L69.851 28.144H70.3749L69.4319 30.8252H68.9529L68.5039 29.5442C68.3991 29.2463 68.3168 28.9782 68.2419 28.6654H68.2269C68.1521 28.9856 68.0623 29.2612 67.965 29.5516L67.4935 30.8252H67.0145L66.1313 28.144H66.6702Z" fill="white"></path><path d="M71.8117 29.5741C71.8266 30.2369 72.2832 30.505 72.8146 30.505C73.1963 30.505 73.4208 30.4455 73.6229 30.3635L73.7127 30.7136C73.5256 30.788 73.2037 30.8774 72.7397 30.8774C71.8416 30.8774 71.3027 30.3337 71.3027 29.522C71.3027 28.7102 71.8192 28.0771 72.6724 28.0771C73.6229 28.0771 73.8773 28.8442 73.8773 29.3432C73.8773 29.44 73.8624 29.522 73.8624 29.5741H71.8117ZM73.3684 29.2241C73.3684 28.9113 73.2262 28.4346 72.6349 28.4346C72.0961 28.4346 71.8641 28.8889 71.8192 29.2241H73.3684Z" fill="white"></path><path d="M75.2168 26.8931H75.7482V30.8328H75.2168V26.8931Z" fill="white"></path><path d="M77.3276 26.8931H77.859V30.8328H77.3276V26.8931Z" fill="white"></path><path d="M79.4307 28.8739C79.4307 28.5984 79.4307 28.3675 79.4082 28.1441H79.8797L79.9096 28.5909H79.9246C80.0668 28.3377 80.4036 28.0845 80.8901 28.0845C81.2942 28.0845 81.9229 28.3079 81.9229 29.2239V30.8252H81.3915V29.2761C81.3915 28.8441 81.2194 28.4792 80.7179 28.4792C80.3662 28.4792 80.0968 28.7101 80.0069 28.9782C79.9845 29.0378 79.9695 29.1197 79.9695 29.2016V30.8177H79.4381V28.859L79.4307 28.8739Z" fill="white"></path><path d="M83.7565 29.5741C83.7715 30.2369 84.228 30.505 84.7594 30.505C85.1411 30.505 85.3656 30.4455 85.5677 30.3635L85.6575 30.7136C85.4704 30.788 85.1486 30.8774 84.6845 30.8774C83.7864 30.8774 83.2476 30.3337 83.2476 29.522C83.2476 28.7102 83.764 28.0771 84.6172 28.0771C85.5677 28.0771 85.8221 28.8442 85.8221 29.3432C85.8221 29.44 85.8072 29.522 85.8072 29.5741H83.7565ZM85.3132 29.2241C85.3132 28.9113 85.171 28.4346 84.5798 28.4346C84.0409 28.4346 83.8089 28.8889 83.764 29.2241H85.3132Z" fill="white"></path><path d="M87.087 30.3336C87.2442 30.4304 87.5211 30.5273 87.7831 30.5273C88.1722 30.5273 88.3519 30.3485 88.3519 30.1251C88.3519 29.8942 88.2022 29.7676 87.8055 29.6336C87.2816 29.4623 87.0346 29.1942 87.0346 28.8739C87.0346 28.442 87.4163 28.0845 88.045 28.0845C88.3369 28.0845 88.5988 28.1589 88.7635 28.2483L88.6288 28.6058C88.5165 28.5388 88.307 28.4494 88.03 28.4494C87.7157 28.4494 87.5436 28.6132 87.5436 28.8143C87.5436 29.0378 87.7157 29.1346 88.0974 29.2686C88.6063 29.4474 88.8608 29.6782 88.8608 30.0804C88.8608 30.5496 88.4641 30.8847 87.7681 30.8847C87.4463 30.8847 87.1544 30.8103 86.9448 30.6986L87.0795 30.3262L87.087 30.3336Z" fill="white"></path><path d="M90.1554 30.3336C90.3126 30.4304 90.5895 30.5273 90.8514 30.5273C91.2406 30.5273 91.4202 30.3485 91.4202 30.1251C91.4202 29.8942 91.2705 29.7676 90.8739 29.6336C90.35 29.4623 90.103 29.1942 90.103 28.8739C90.103 28.442 90.4847 28.0845 91.1134 28.0845C91.4053 28.0845 91.6672 28.1589 91.8319 28.2483L91.6971 28.6058C91.5849 28.5388 91.3753 28.4494 91.0984 28.4494C90.7841 28.4494 90.6119 28.6132 90.6119 28.8143C90.6119 29.0378 90.7841 29.1346 91.1658 29.2686C91.6747 29.4474 91.9292 29.6782 91.9292 30.0804C91.9292 30.5496 91.5325 30.8847 90.8365 30.8847C90.5146 30.8847 90.2227 30.8103 90.0132 30.6986L90.1479 30.3262L90.1554 30.3336Z" fill="white"></path><path d="M85.0363 21.4042C84.5873 21.4042 84.273 21.3298 84.1008 21.1808C83.7491 20.8755 83.5694 20.0786 83.5694 18.7976C83.5694 17.3975 83.6518 15.9601 83.6592 14.5525C83.6667 13.3013 83.547 12.0278 82.7686 10.9851C81.7433 9.62225 79.9545 9.27222 78.3454 9.27222C76.7363 9.27222 75.1197 9.85312 73.6528 11.0149L73.563 11.1341L74.0869 13.1747L74.506 13.2045C75.6286 11.4767 76.8037 10.6053 78.0161 10.6053C78.6672 10.6053 79.3034 10.6649 79.8647 11.0447C80.8975 11.7373 81.0996 13.0109 81.1146 14.1652C81.1146 14.5823 80.5982 14.7164 80.2764 14.7834C79.4905 14.9472 78.7047 15.0738 77.9188 15.2451C76.2723 15.5952 74.9775 16.1537 74.027 16.9357C73.0765 17.7177 72.605 18.6189 72.605 19.6541C72.605 21.0765 73.331 22.2011 74.7081 22.6629C75.9504 23.0799 77.5596 23.0874 78.7795 22.5884C79.3708 22.3501 80.0892 21.8809 80.9499 21.1883H81.0772C81.2568 21.7617 81.5711 22.2011 82.0202 22.499C82.4692 22.7969 83.0006 22.9459 83.6069 22.9459C84.6771 22.9459 85.5303 22.6331 86.1515 22.0075L85.9045 21.2478C85.5902 21.3596 85.3058 21.4117 85.0438 21.4117L85.0363 21.4042ZM80.9425 19.4083C80.9425 19.736 80.7928 19.9967 80.4859 20.1977C79.3782 20.9946 78.3978 21.3893 77.5446 21.3893C76.8336 21.3893 76.2573 21.2032 75.8232 20.8233C75.3816 20.4435 75.1646 20.0116 75.1646 19.5275C75.1646 18.7902 75.4041 18.1795 75.8756 17.6805C76.3471 17.1815 77.1779 16.7793 78.3679 16.474L81.0697 15.7814L80.9425 19.4083Z" fill="white"></path><path d="M91.8097 4.21524C91.69 5.74943 91.5178 7.4996 91.5104 9.04124C91.5104 11.5362 91.5104 14.0385 91.5104 16.5335C91.5104 19.2518 91.6077 21.285 91.8097 22.633L91.7274 22.7223C91.3457 22.6628 90.8443 22.633 90.2306 22.633C89.6168 22.633 89.1154 22.6628 88.7337 22.7223L88.6738 22.633C88.8609 21.3371 88.9507 19.3039 88.9507 16.5335V9.10082C88.9507 6.19628 88.8535 5.86114 88.6738 4.84828L88.7337 4.74401C89.6917 4.68443 90.7769 4.39398 91.675 4.04395L91.8097 4.21524Z" fill="white"></path><path d="M98.6276 9.46585V12.0874L98.7249 11.998C100.536 10.1734 102.325 9.25732 104.099 9.25732C105.004 9.25732 105.768 9.4733 106.381 9.91271C106.995 10.3521 107.384 10.933 107.526 11.6703C109.128 10.0617 110.924 9.25732 112.923 9.25732C114.502 9.25732 115.557 9.66694 116.088 10.4936C116.754 11.5214 116.829 12.7726 116.859 13.9642L116.904 18.9466C116.919 19.6317 116.949 20.3244 117.001 21.0095C117.024 21.3 117.046 21.5904 117.084 21.8809C117.099 22.0149 117.114 22.1415 117.129 22.2756C117.129 22.3277 117.204 22.5958 117.181 22.6331L117.106 22.7225C116.725 22.6629 116.223 22.6331 115.609 22.6331C114.996 22.6331 114.494 22.6629 114.113 22.7225L114.053 22.6331C114.24 21.3968 114.33 19.5647 114.33 17.1443V13.8003C114.33 12.8098 114.127 12.1097 113.723 11.7001C113.319 11.2905 112.668 11.0894 111.777 11.0894C110.221 11.0894 108.866 11.7001 107.728 12.9215C107.751 13.1673 107.758 13.5545 107.758 14.0833V17.1517C107.758 19.5126 107.856 21.3447 108.058 22.6405L107.998 22.7299C107.609 22.6703 107.1 22.6405 106.471 22.6405C105.842 22.6405 105.326 22.6703 104.937 22.7299L104.877 22.6405C105.064 21.4042 105.161 19.5722 105.176 17.1517V13.8078C105.176 12.0055 104.465 11.0969 103.051 11.0969C102.474 11.0969 101.786 11.3128 100.97 11.7522C100.154 12.1916 99.3835 12.7651 98.6425 13.4801V17.1517C98.6425 19.5126 98.7398 21.3447 98.9269 22.6405L98.8671 22.7299C98.4854 22.6703 97.9764 22.6405 97.3627 22.6405C96.749 22.6405 96.2476 22.6703 95.8734 22.7299L95.8135 22.6405C96.0006 21.4042 96.0904 19.5722 96.0904 17.1517V15.4835C96.0904 12.6757 95.9931 10.7021 95.8135 9.56267L95.8734 9.4733C96.8089 9.55523 97.7968 9.50309 98.5827 9.36904L98.6575 9.46585H98.6276Z" fill="white"></path><path d="M55.0318 4.14088L55.0019 4.05151C54.6426 4.11109 54.1187 4.14088 53.4377 4.14088C52.7566 4.14088 52.2552 4.11109 51.8884 4.05151L51.8286 4.14088C52.0456 5.59315 52.1579 7.62633 52.1579 10.2479V11.5139C50.182 12.3108 48.0939 12.7055 45.9983 13.1152C44.7784 13.3535 43.5584 13.6141 42.361 13.9716C41.9269 14.0982 41.4853 14.2397 41.0662 14.4185V10.2479C41.0737 7.51461 41.1859 5.48144 41.3955 4.14088L41.3656 4.05151C40.9988 4.11109 40.4749 4.14088 39.7864 4.14088C39.1352 4.14088 38.6263 4.11109 38.2596 4.05151L38.1997 4.14088C38.4093 5.5857 38.514 7.61888 38.514 10.2404V16.5485C38.514 19.237 38.4093 21.2702 38.1997 22.648L38.2296 22.7374C38.5889 22.6778 39.1128 22.648 39.7939 22.648C40.4749 22.648 40.9764 22.6778 41.3431 22.7374L41.403 22.648C41.1859 21.2032 41.0737 19.17 41.0737 16.5485V16.2878C41.8221 15.7218 42.8549 15.5133 43.7381 15.2824C44.8457 14.9919 45.9759 14.776 47.0985 14.56C48.8274 14.2248 50.5263 13.845 52.1653 13.2492V16.5559C52.1579 19.2445 52.0456 21.2776 51.836 22.6554L51.866 22.7448C52.2327 22.6852 52.7566 22.6554 53.4452 22.6554C54.0963 22.6554 54.6052 22.6852 54.9794 22.7448L55.0393 22.6554C54.8297 21.2106 54.725 19.1774 54.725 16.5559V10.2479C54.725 7.52206 54.8297 5.48889 55.0393 4.14833L55.0318 4.14088Z" fill="white"></path><path d="M62.8527 17.5612C64.1101 17.1665 65.3749 16.7941 66.6472 16.4292C67.478 16.1909 68.3087 15.96 69.1395 15.7291C69.4987 15.6323 69.828 15.4908 69.8954 15.0961C69.9403 14.828 69.8954 14.5449 69.8729 14.2768C69.7906 13.0927 69.3341 11.9383 68.6305 10.985C67.7848 9.83811 66.4526 9.26465 64.6265 9.26465C63.9379 9.26465 63.2568 9.3987 62.6207 9.63702C61.296 10.1435 60.1584 11.0967 59.395 12.2883C58.5418 13.614 58.2723 15.1854 58.3322 16.742C58.3621 17.6357 58.4969 18.5294 58.8112 19.3635C59.7767 21.9329 62.3962 22.9383 64.9857 22.9383C66.0634 22.9383 67.0738 22.6925 68.0094 22.1936C68.9075 21.7169 69.6409 21.0839 70.2172 20.3168C69.9253 20.1604 69.6709 19.9593 69.4613 19.7135C68.4584 20.6668 67.1487 21.1509 65.5321 21.1509C64.4543 21.1509 63.3392 20.8902 62.4635 20.2423C61.8498 19.788 61.4531 19.1997 61.1987 18.5443C61.1163 18.3208 62.1118 17.8368 62.2165 17.7921C62.4186 17.7027 62.6282 17.6282 62.8377 17.5612H62.8527ZM60.9068 15.2599C61.1388 13.2491 62.1118 10.8808 64.4768 10.7095C65.5096 10.635 66.3853 11.1861 66.8717 12.0724C67.1112 12.5043 67.2534 12.9884 67.3133 13.48C67.3283 13.6215 67.4106 14.8801 67.3358 14.9024C66.3329 15.2152 65.3375 15.5578 64.3121 15.811C63.1521 16.1015 61.8573 16.4068 60.8843 17.1367C60.817 16.5111 60.8319 15.8632 60.9068 15.2525V15.2599Z" fill="white"></path><path d="M124.628 17.5612C125.885 17.1665 127.15 16.7941 128.423 16.4292C129.253 16.1909 130.084 15.96 130.915 15.7291C131.274 15.6323 131.603 15.4908 131.671 15.0961C131.716 14.828 131.671 14.5449 131.648 14.2768C131.566 13.0927 131.109 11.9383 130.406 10.985C129.56 9.83811 128.228 9.26465 126.402 9.26465C125.713 9.26465 125.032 9.3987 124.396 9.63702C123.071 10.1435 121.934 11.0967 121.17 12.2883C120.317 13.614 120.048 15.1854 120.108 16.742C120.138 17.6357 120.272 18.5294 120.587 19.3635C121.552 21.9329 124.172 22.9383 126.761 22.9383C127.839 22.9383 128.849 22.6925 129.785 22.1936C130.683 21.7169 131.416 21.0839 131.993 20.3168C131.701 20.1604 131.446 19.9593 131.237 19.7135C130.234 20.6668 128.924 21.1509 127.307 21.1509C126.23 21.1509 125.115 20.8902 124.239 20.2423C123.625 19.788 123.229 19.1997 122.974 18.5443C122.892 18.3208 123.887 17.8368 123.992 17.7921C124.194 17.7027 124.404 17.6282 124.613 17.5612H124.628ZM122.682 15.2599C122.914 13.2491 123.887 10.8808 126.252 10.7095C127.285 10.635 128.161 11.1861 128.647 12.0724C128.887 12.5043 129.029 12.9884 129.089 13.48C129.104 13.6215 129.186 14.8801 129.111 14.9024C128.108 15.2152 127.113 15.5578 126.088 15.811C124.927 16.1015 123.633 16.4068 122.66 17.1367C122.592 16.5111 122.607 15.8632 122.682 15.2525V15.2599Z" fill="white"></path><path d="M24.2863 15.5876L24.4136 16.1834C24.9075 16.1462 25.409 16.2058 25.873 16.3622C26.337 16.5111 26.7711 16.7494 27.063 17.0697C27.3699 17.3825 27.5121 17.7623 27.5121 18.157C27.5121 18.5368 27.325 18.8869 27.0181 19.155C26.7112 19.4231 26.2772 19.5944 25.888 19.6167C25.4913 19.6316 25.0647 19.4976 24.6456 19.2592C24.234 19.0209 23.8298 18.6783 23.4406 18.3358C23.0514 17.9932 22.6997 17.6059 22.3704 17.2112L21.6743 17.6953C21.6968 17.7325 21.7267 17.7697 21.7492 17.807C21.7492 17.807 21.7641 17.8368 21.7791 17.8442C21.9288 18.0676 22.0785 18.2911 22.2431 18.4996C22.9841 19.7582 23.0664 21.3967 22.6623 22.8341C22.4228 23.6831 22.0336 24.5693 21.4348 24.9492C21.1504 25.1279 20.8211 25.1875 20.4769 25.0981C20.1625 25.0162 19.8931 24.8225 19.6985 24.4949C19.2943 23.8469 19.1596 22.9234 19.1596 22.0223C19.1447 21.069 19.1596 20.1232 19.2045 19.1773C19.2419 18.2836 19.3243 17.3974 19.444 16.5186C20.3122 16.243 21.1804 15.9302 22.0186 15.528C22.9167 15.1035 23.7924 14.5673 24.5558 13.8747C25.3117 13.1746 25.9404 12.2437 26.1574 11.1563C26.2547 10.6201 26.2622 10.0318 26.0901 9.46575C25.9254 8.89973 25.5587 8.36351 25.0572 8.00603C24.5558 7.6411 23.9795 7.44747 23.3658 7.41768C22.7521 7.38044 22.1234 7.57407 21.6219 7.88687C20.6116 8.51246 20.0128 9.48809 19.6012 10.419C19.1821 11.3574 18.9052 12.333 18.6956 13.3012C18.5085 14.1726 18.3513 15.0514 18.2316 15.9376C17.558 16.1238 16.8769 16.2951 16.1959 16.459C15.627 16.6005 15.0582 16.7345 14.4894 16.8835C14.5942 16.1387 14.684 15.394 14.714 14.6418C14.7738 13.6662 14.7888 12.6831 14.7589 11.7075C14.7514 11.2085 14.7065 10.6722 14.5867 10.1509C14.4745 9.62959 14.3023 9.08592 13.9655 8.57204C13.6512 8.05816 13.0599 7.58897 12.4013 7.44747C11.7801 7.29107 11.0242 7.41768 10.4779 7.79005C9.92404 8.15498 9.59473 8.66141 9.34026 9.1455C9.09328 9.63704 8.92863 10.1435 8.80888 10.6499C8.56938 11.6479 8.50951 12.7203 8.72655 13.7481C8.61429 13.6587 8.50203 13.5693 8.38228 13.48C7.87335 13.1448 7.22222 12.8842 6.5187 12.9065C5.81517 12.9288 5.17901 13.2044 4.65511 13.6587C4.13121 14.1056 3.77945 14.8205 3.80939 15.5429C3.82436 16.243 4.17612 16.9356 4.67757 17.3601C5.70291 18.2017 6.99769 18.4177 8.17272 18.0974L8.04549 17.5016C7.55152 17.5389 7.05008 17.4793 6.58605 17.3229C6.12203 17.1739 5.68794 16.9356 5.39606 16.6154C5.0892 16.3026 4.947 15.9228 4.947 15.528C4.947 15.1482 5.13411 14.7982 5.44096 14.5301C5.74782 14.262 6.1819 14.0907 6.57109 14.0683C6.96775 14.0534 7.39435 14.1875 7.81347 14.4258C8.22511 14.6641 8.62926 15.0067 9.01844 15.3493C9.40762 15.6919 9.75938 16.0792 10.0887 16.4739H10.1037C10.1037 16.4739 10.171 16.5483 10.2084 16.5856L10.9494 15.8781C10.3806 15.245 10.0363 14.4258 9.91655 13.5693C9.78932 12.7054 9.86416 11.8192 10.0887 10.9627C10.3132 10.1286 10.7099 9.26466 11.2562 8.92952C11.5182 8.77313 11.7951 8.71355 12.1094 8.78802C12.3938 8.8625 12.6259 9.02634 12.8204 9.33169C13.015 9.62959 13.1498 10.0169 13.2321 10.4339C13.3219 10.8584 13.3593 11.2829 13.3668 11.7447C13.3818 12.6905 13.3893 13.6364 13.3668 14.5822C13.3369 15.4685 13.2845 16.3622 13.2021 17.2484C12.319 17.5091 11.4433 17.8144 10.5901 18.2017C9.68454 18.6262 8.8014 19.1475 8.038 19.8625C7.27461 20.5551 6.65341 21.5233 6.49624 22.6181C6.4214 23.1469 6.42888 23.7278 6.62348 24.2714C6.8031 24.8151 7.16983 25.3141 7.6563 25.6418C8.14278 25.9769 8.69662 26.1333 9.27291 26.1557C9.84919 26.178 10.4255 25.9844 10.897 25.6939C11.8475 25.0981 12.4013 24.1597 12.8429 23.266C13.277 22.3574 13.5614 21.3967 13.8159 20.4434C14.0254 19.6018 14.2125 18.7528 14.3622 17.8963C15.0508 17.7027 15.7543 17.524 16.4503 17.3527C17.0116 17.2112 17.5804 17.0697 18.1492 16.9207C18.0669 17.658 18.007 18.4028 17.9771 19.1401C17.9397 20.1157 17.9322 21.0988 17.9771 22.0744C17.9921 22.5734 18.037 23.1022 18.1567 23.616C18.269 24.1299 18.4411 24.6587 18.7704 25.1502C19.0773 25.6418 19.6386 26.0812 20.2673 26.2152C20.866 26.3642 21.5696 26.2376 22.086 25.8801C22.6099 25.5301 22.9317 25.046 23.1787 24.5768C23.4182 24.0927 23.5828 23.6012 23.6951 23.1022C23.9271 22.1042 23.9795 21.0541 23.7774 20.0338C23.7774 20.0114 23.7624 19.9891 23.7624 19.9668C23.8747 20.0561 23.987 20.1455 24.1067 20.2274C24.6157 20.5626 25.2668 20.8232 25.9703 20.8009C26.6738 20.7785 27.31 20.503 27.8339 20.0487C28.3578 19.6018 28.7095 18.8869 28.6796 18.1645C28.6646 17.4644 28.3129 16.7718 27.8114 16.3473C26.7936 15.5057 25.4913 15.2897 24.3163 15.61L24.2863 15.5876ZM12.7606 20.1976C12.5884 21.1211 12.334 22.0297 11.9747 22.8713C11.623 23.7203 11.1066 24.4874 10.403 24.9343C10.0513 25.1502 9.66209 25.262 9.27291 25.2396C8.88372 25.2173 8.47209 25.0907 8.16523 24.8672C7.52907 24.4204 7.29706 23.5788 7.45423 22.7521C7.60391 21.9329 8.06794 21.1807 8.71159 20.57C9.35523 19.9519 10.1486 19.4678 10.9868 19.0656C11.6529 18.7528 12.3489 18.4996 13.0599 18.2687C12.9776 18.9167 12.8803 19.5646 12.7606 20.2051V20.1976ZM19.9754 13.5693C20.185 12.6607 20.4469 11.767 20.8211 10.9478C21.0157 10.5382 21.2178 10.1509 21.4723 9.82323C21.7192 9.48064 22.0036 9.19019 22.3255 8.9891C22.6398 8.78802 22.9766 8.67631 23.3358 8.6912C23.6876 8.6912 24.0768 8.79547 24.3687 8.9891C24.9749 9.36148 25.2518 10.1584 25.1321 10.985C25.0348 11.8043 24.5558 12.5863 23.9196 13.2044C23.2835 13.8374 22.4826 14.329 21.6369 14.7163C20.9858 15.0291 20.3047 15.2748 19.6087 15.5057C19.7135 14.8578 19.8332 14.2098 19.9829 13.5693H19.9754Z" fill="white"></path><path d="M16.5776 0C7.42439 0 0 7.38795 0 16.4963C0 25.612 7.42439 32.9925 16.5776 32.9925C25.7384 32.9925 33.1553 25.6046 33.1553 16.4963C33.1628 7.38795 25.7384 0 16.5776 0ZM27.6993 27.5707C24.8478 30.4083 20.9185 32.1584 16.5776 32.1584C12.2293 32.1584 8.30005 30.4083 5.45603 27.5707C2.60452 24.7332 0.845722 20.8233 0.845722 16.5037C0.845722 12.1767 2.60452 8.26676 5.45603 5.4367C8.30754 2.59919 12.2368 0.849018 16.5776 0.849018C20.926 0.849018 24.8552 2.59919 27.6993 5.4367C30.5508 8.2742 32.3096 12.1842 32.3096 16.5037C32.3096 20.8307 30.5508 24.7407 27.6993 27.5707Z" fill="white"></path><path d="M26.7262 13.9119C27.3699 15.5429 29.8247 14.6715 29.2559 12.981C28.5823 11.3276 26.1499 12.2586 26.7262 13.9119ZM28.515 13.2491C28.8068 14.0236 27.6243 14.5003 27.3025 13.6959C27.0256 12.8767 28.2231 12.4671 28.515 13.2491Z" fill="white"></path></svg>