<svg xmlns="http://www.w3.org/2000/svg" id="Layer_2" data-name="Layer 2" viewBox="0 0 511.89 500.46"><defs><style>      .cls-1 {        fill: #0b2e04;      }      .cls-1, .cls-2, .cls-3, .cls-4 {        stroke-width: 0px;      }      .cls-2 {        fill: #e0e2bc;      }      .cls-3 {        fill: #fff;      }      .cls-4 {        fill: #f3bf9a;      }    </style></defs><g id="Layer_1-2" data-name="Layer 1"><g id="Layer_3" data-name="Layer 3"><ellipse class="cls-4" cx="255.94" cy="250.23" rx="255.94" ry="250.23"></ellipse><ellipse class="cls-1" cx="255.94" cy="250.06" rx="245.02" ry="239.06"></ellipse></g><g id="Layer_4" data-name="Layer 4"><path class="cls-2" d="m203.08,345.5c-3.12-6-5.94-12.19-9.46-17.95-3.46-5.65-7.63-10.87-11.93-16.89,1.11.65,1.76.88,2.23,1.32,6.75,6.42,12.37,13.56,15.86,22.39,2.2,5.56,5.17,10.85,8.13,16.06,1,1.76,3.03,2.95,4.62,4.37,7.6,6.78,15.22,13.56,22.83,20.33.27.24.6.43,1.32.95-.26-1.05-.3-1.7-.56-2.23-5.78-11.59-3.89-22.59,2.51-33.26.3-.5.56-1.03.9-1.5,1.42-2.01,1.07-3.55-.71-5.33-10.27-10.28-22.44-17.45-35.89-22.73-21.44-8.42-43.7-12.22-66.65-12.05-5.8.04-11.6.83-17.39,1.4-2.95.29-3.4,1.42-1.87,4.04,2.31,3.94,4.6,7.88,6.93,11.81,4.89,8.22,9.41,16.7,14.77,24.6,13.12,19.37,28.41,36.73,48.86,48.74,9.35,5.49,19.38,8.97,30.53,7.67,6.04-.7,11.4-3.03,16.29-6.56.71-.51,1.45-.97,2.2-1.42.11-.07.33.05.99.73-3.01,2.12-5.84,4.61-9.07,6.3-10.07,5.26-20.57,5.03-31.1,1.49-11.03-3.71-20.46-10.06-29.22-17.62-10.8-9.32-20.08-19.98-28.18-31.64-6.63-9.53-12.91-19.32-18.93-29.24-3.3-5.44-5.72-11.4-8.56-17.12-.88-1.78-.42-2.81,1.56-3.05,17.01-2.13,34.04-2.92,51.09-.59,18.19,2.49,35.87,6.81,52.19,15.53,8.83,4.71,17.45,9.79,24.15,17.48,1.21,1.39,2.43,2.02,3.76.18,4.5-6.26,10.56-10.82,16.83-15.08,16.7-11.36,35-19.23,54.49-24.29,25-6.48,50.36-9.36,76.2-7.21,1.43.12,2.89-.12,4.34-.11,2.38.02,3.3,1.3,2.27,3.25-4.02,7.58-7.8,15.32-12.23,22.66-5.1,8.44-10.6,16.66-16.28,24.72-10.89,15.45-22.6,30.22-36.69,42.95-11.73,10.6-24.12,20.17-39.04,25.93-10.97,4.24-22.15,5.85-33.6,2.01-6.27-2.1-11.62-5.61-16.03-11.67,1.16.41,1.73.45,2.07.75,14.86,12.96,31.1,11.6,47.73,4.39,14.53-6.3,26.86-15.86,38.11-26.85,4.63-4.53,8.94-9.39,13.39-14.11,3.88-4.12,7.84-8.17,11.6-12.4,1.37-1.54,1.89-3.97,3.43-5.21,2.78-2.22,3.5-5.62,5.56-8.21,2.14-2.69,3.89-5.7,5.78-8.59,2.22-3.4,4.5-6.77,6.59-10.26,3.99-6.64,7.85-13.36,11.8-20.03.74-1.25,1.7-2.37,2.38-3.64,1.49-2.78.99-3.57-2.07-3.83-16.15-1.38-32.17-.03-48.12,2.45-23.91,3.72-46.61,11.25-67.91,22.69-10.39,5.58-19.52,13-27.78,21.46-1.88,1.93-2.25,3.54-.76,6.09,7.96,13.67,6.96,24.3-3.4,36.62-1.97,2.35-.39,3.4.92,4.81,1.61,1.74,2.35.2,3.45-.78,10.1-8.94,20.14-17.96,30.46-26.64,3.83-3.22,6.47-7.11,8.82-11.33,4.49-8.04,8.46-16.43,13.52-24.09,3.55-5.36,8.55-9.76,12.93-14.56.41-.45,1.06-.69,1.87-.73-4.93,6.52-10.22,12.81-14.7,19.62-4.47,6.78-8.14,14.09-12.16,21.17.2.18.41.36.61.54,3.31-2.26,6.56-4.63,9.95-6.77,12.49-7.87,25-15.69,37.55-23.46,1.72-1.07,3.62-1.9,5.52-2.6.86-.32,1.94-.05,2.91-.05.03.27.05.54.08.81-7.36,4.48-14.72,8.97-22.08,13.45.85.13,1.76.22,2.73.26,3.82.13,7.03-.74,9.32-1.63,5.41-2.03,10.82-4.06,16.23-6.09.83.46,1.66.92,2.49,1.38-3.91,1.75-10.36,4.48-17.89,6.92,0,0-9.06,2.93-12.65,1.61-.18-.07-.89-.36-1.86-.34-1.37.03-2.53.71-3.79,1.5-15.6,9.76-29.8,21.39-44.15,32.83-.61.48-1.18,1.01-1.72,1.56-.17.18-.2.5-.27.7,19.06,7.54,37.82,4.22,56.51-1.95.07.3.15.61.22.91-.45.34-.86.8-1.37,1.01-12.51,5.07-25.54,7.37-38.97,6.26-5.25-.44-10.44-2.15-15.56-3.61-2.62-.74-4.59-.5-6.65,1.34-5.42,4.86-11.01,9.52-16.44,14.37-3.94,3.52-3.9,3.61-7.66-.3-1.03-1.07-1.83-2.24-3.66-1.53-.84.32-1.55-.59-1.91-.89-7.92-6.57-11.59-10.16-11.59-10.16-1.33-1.3-3.34-3.17-6.02-5.24-.87.32-1.76.63-2.67.93-2.98.99-5.86,1.78-8.59,2.4-6.1,1.5-17.04,3.23-29.61-.28-4.85-1.36-8.92-3.21-12.18-5.03.9-.38,1.79-.76,2.69-1.13,6.36,2.82,11.83,3.95,15.51,4.46,6.75.94,12.08.43,18.7-.21,6.04-.58,10.99-1.48,14.37-2.19-.41-.44-1.22-1.29-2.25-2.34-4.24-4.27-10.87-10.24-31.63-23.81-1.28-.83-3.35-2.18-5.94-3.83-4.65.31-11.41.15-19.02-2.23-3.65-1.14-6.76-2.57-9.31-3.97.11-.51.22-1.02.33-1.53,2.81,1.52,6.87,3.34,12.01,4.47,5.08,1.12,9.49,1.18,12.66.98-5.64-3.38-11.28-6.77-16.92-10.15-.13-.54-.26-1.08-.39-1.63.83.17,2.05.44,3.51.86,6.04,1.73,9.29,4.01,17.3,8.95,10.2,6.3,10.85,6.27,15.39,9.6,3.3,2.42,5.93,4.62,7.77,6.23.82.15,1.63.3,2.45.45Zm37.55,30.12c.65-.34.96-.42,1.15-.61,9.28-9.74,9.8-22.09,3.2-33.23-1.3-2.2-2.65-1.26-3.36.45-1.79,4.27-3.91,8.5-4.92,12.97-1.62,7.14-.32,14.02,3.92,20.43Z"></path><g><path class="cls-3" d="m388.79,216.36c5.72-5.13,12.07-5.07,18.64-1.35,3.92,2.22,6.2,5.29,5.9,10.14-.38,6.1-.35,12.23-.55,18.35-.11,3.21-1.76,4.8-4.66,4.68-2.65-.12-4.18-1.86-4.13-4.93.11-5.83.33-11.65.45-17.48.08-3.9-2.37-6.34-6.28-6.36-3.75-.02-6.29,2.33-6.39,6.04-.15,5.63-.21,11.27-.33,16.9-.07,3.52-1.52,5.2-4.46,5.22-2.83.02-4.44-1.84-4.38-5.24.09-5.63.26-11.26.38-16.9.08-3.7-2.49-6.39-6.24-6.54-3.59-.15-6.84,2.74-6.95,6.27-.17,5.63-.26,11.26-.42,16.9-.1,3.71-1.59,5.36-4.67,5.29-2.92-.06-4.37-1.78-4.29-5.33.19-8.64.39-17.28.69-25.92.16-4.69,3.64-6.34,7.64-3.8.58.37,1.45.76,2.01.58,6.36-2.08,12.03-.76,17.2,3.27.14.11.37.1.83.22Z"></path><path class="cls-3" d="m136.12,126.21c0,4,.03,7.56,0,11.13-.04,3.57-1.5,5.22-4.44,5.16-2.94-.06-4.44-1.85-4.38-5.29.01-.67-.01-.83.05-2.52.08-2.21.08-3.86.09-6.21,0-.89,0-2.15-.03-3.69-.05-.17-.16-.42-.36-.68-.51-.65-1.12-.62-1.7-1.03-.72-.51-1.13-1.42-1.18-2.23-.07-1.06.46-2.31,1.38-2.79.68-.35,1.4-.19,1.77-.77.16-.25.17-.51.18-.67.04-1.78-.77-11.34.31-17.21.22-1.17.49-2.12,1.16-3.04,1.37-1.91,3.55-2.53,5.1-2.92,4.66-1.16,7.56-1.89,12.58-1.65,5.59.26,9.6.44,13.72,3.24,2.46,1.67,4.56,4.01,6.21,7.13,4.1,7.73,1.38,15.81-6.76,20.94-5.26,3.31-11.09,3.87-17.09,3.59-1.93-.09-3.85-.29-6.57-.49Zm.93-7.03c5.22,1.19,10.47,1.19,15.61-.8,4.19-1.62,6.6-5.05,6.68-9.33.08-4.29-2.2-7.66-6.49-9.41-5.02-2.05-9.92-.89-14.73.83-.51.18-1.02,1.18-1.03,1.8-.08,5.52-.05,11.05-.05,16.91Z"></path><path class="cls-3" d="m278.43,211.05c0-3.96-.01-7.55,0-11.13.02-3.63,1.6-5.46,4.58-5.35,2.94.11,4.42,1.86,4.34,5.3-.27,11.65-.59,23.3-.85,34.95-.02,1.03.01,2.2.47,3.06.88,1.67,1.77,3.57-.09,4.63-1.45.82-4.05,1.25-5.28.48-2.1-1.32-3.47-.9-5.47-.1-5.9,2.38-11.9,2.42-17.82-.17-3.51-1.54-5.73-4.28-7-7.78-3.06-8.49,1.21-18.26,9.44-21.9,4.36-1.93,8.91-2.59,13.63-2.2,1.14.09,2.29.12,4.02.2Zm-.46,15.08s.06,0,.09,0c0-1.85.2-3.72-.08-5.52-.14-.89-1.03-2.2-1.79-2.37-4.69-1.07-9.25-.81-13.25,2.34-4.14,3.26-5.16,10.24-2.03,13.8,2.46,2.8,7.14,3.54,11.64,1.85,5.03-1.89,5.34-2.34,5.42-7.76.01-.78,0-1.55,0-2.33Z"></path><path class="cls-3" d="m291.26,134.06c1.85,3.37,4.56,5.05,7.78,4.63,3.77-.49,7.42-1.94,11.14-2.86,1.74-.43,3.59-.97,5.29-.74,1.02.14,2.35,1.56,2.6,2.63.2.87-.73,2.58-1.61,3.03-7.58,3.86-15.46,6.37-24.05,3.66-6.25-1.97-11.02-8.1-11.44-14.43-.49-7.36,2.62-12.94,9.11-16.12,6.1-2.98,12.52-4.54,19.11-2.25,2.38.83,4.71,2.77,6.25,4.82,2.96,3.96,2.13,8.79-2.27,10.93-4.99,2.41-10.49,3.79-15.81,5.49-1.83.58-3.78.77-6.1,1.22Zm-1.92-7.61c.34.31.68.63,1.02.94,5.04-1.34,10.12-2.53,15.08-4.11,1.14-.36,1.87-2.03,2.79-3.1-1.26-.86-2.65-2.59-3.75-2.42-3.74.58-7.61,1.36-10.96,3.01-1.87.92-2.82,3.73-4.18,5.68Z"></path><path class="cls-3" d="m120.85,241.34c-10.62-.05-19.03-6.37-21.61-15.9-2.56-9.46,1.96-20.64,11.14-25.61,4.97-2.69,10.49-4.54,15.96-6.05,5.37-1.48,10.19.1,13.49,5,1.18,1.75,2.33,3.53.31,5.44-1.64,1.55-5.41,1.73-6.58-.34-2.94-5.19-6.7-3.19-10.51-1.86-6.85,2.39-12.69,5.92-14.94,13.43-2.79,9.33,3.06,18.54,12,18.99,4.59.23,7.64-2.38,10.36-5.54,1.47-1.71,3.03-2.98,5.44-2.73,3.37.35,4.79,3.19,2.68,5.79-4.66,5.77-10.42,9.55-17.74,9.37Z"></path><path class="cls-3" d="m229.27,140.59c-4.31,2.51-8.99,2.98-13.79,2.57-10.95-.93-16.46-9.97-11.98-20,3.87-8.67,14.72-16.87,26.94-14.46,3.59.71,4.55,1.87,4.53,5.48-.03,4.95-.31,9.92.07,14.84.2,2.68,1.35,5.36,2.42,7.89.85,2.01,2.19,3.85.03,5.74-1.71,1.49-4.6,1.15-6.62-.65-.5-.45-1-.89-1.6-1.42Zm-3.35-25.13c-7.9.07-15.11,7.01-15.04,14.24.04,4.63,3.1,7.05,8.49,6.74,4.75-.28,6.84-2.71,6.48-7.15-.24-2.98-.15-6-.14-9,0-1.61.14-3.21.21-4.83Z"></path><path class="cls-3" d="m179.14,220.89c.14,3.01.02,6.06.52,9,.36,2.12,1.42,4.16,2.39,6.12.95,1.92,1.97,3.72-.09,5.48-1.69,1.44-4.68,1.36-6.36-.51-1.32-1.47-2.28-1.33-3.93-.62-5.68,2.46-11.59,2.56-17.28.27-7.31-2.95-9.81-10.61-6.44-18.6,4.16-9.83,16.19-16.41,26.67-14.57,3.87.68,4.91,1.94,4.88,5.85-.02,2.52,0,5.05,0,7.57-.12,0-.23,0-.35,0Zm-8.87-6.9c-7.1,1.19-12.07,4.5-14.36,11.15-1.24,3.59-.61,6.9,1.65,8.54,3,2.18,6.13,2.17,9.59.76,3.39-1.39,3.62-3.52,3.25-6.79-.5-4.38-.12-8.86-.12-13.65Z"></path><path class="cls-3" d="m240.78,221.55c0,2.33-.33,4.72.08,6.97.55,2.97,1.47,5.93,2.65,8.72.85,1.99,1.91,3.87-.1,5.48-1.95,1.57-4.42,1.53-6.09-.29-1.64-1.8-2.85-1.33-4.72-.57-5.01,2.03-10.27,2.18-15.39.56-8.32-2.64-11.69-10.8-7.79-19.08,4.22-8.96,14.21-16.52,26.64-14.63,3.77.58,4.9,1.98,4.84,5.85-.03,2.33,0,4.66,0,6.99-.04,0-.07,0-.11,0Zm-8.65-5.93c-6.84,0-12.79,4.52-14.74,10.84-1.32,4.28-.38,7.5,2.68,9.2,3.47,1.92,9.33.96,11.59-1.95.32-.41.45-1.05.45-1.59.03-5.42.02-10.85.02-16.5Z"></path><path class="cls-3" d="m343.77,242.11c-4.5,1.05-8.44,2.6-12.44,2.77-8.31.35-14.9-6.05-15.16-14.37-.16-5.03.2-10.09.49-15.12.14-2.56,1.96-3.93,4.56-3.83,2.65.1,4.26,1.57,4.23,4.15-.03,3.3-.26,6.59-.4,9.89-.04.87-.11,1.75-.1,2.62.02,3.93.5,7.74,4.67,9.53,3.01,1.3,7.54-.68,10.34-4.34.51-.66.61-1.75.64-2.65.14-4.07.08-8.15.32-12.21.08-1.39.66-2.83,1.3-4.11,1.01-2.01,2.81-2.56,4.93-2.02,2.23.57,3.18,2.13,3.01,4.34-.19,2.42-.63,4.82-.73,7.24-.25,5.84-.27,11.62,3.24,16.81,1.48,2.19.07,4.34-2.72,4.68-3.31.4-5.09-1.83-6.19-3.4Z"></path><path class="cls-3" d="m259.97,107.08c3.41,1,6.9,1.82,10.22,3.07,1.69.64,3.39,2.03,2.54,4.28-.81,2.15-2.79,2.52-4.85,2.23-.85-.12-1.66-.54-2.5-.75-1.6-.39-3.19-.92-4.81-1.03-2.13-.15-4.63-.2-5.16,2.54-.5,2.61,1.81,3.39,3.7,4.1,2.45.92,5.02,1.5,7.44,2.48,6.25,2.53,8.7,6.17,7.86,11.32-.77,4.77-5.96,9.3-11.51,9.53-6.68.27-12.66-1.85-17.31-6.78-.87-.92-1.51-3.19-.98-4.01.69-1.08,2.69-1.91,4.06-1.82,1.45.1,2.99,1.21,4.2,2.22,2.44,2.04,4.86,3.93,8.28,3.51,2.17-.27,4.07-1.19,4.49-3.49.43-2.38-1.24-3.72-3.17-4.64-.95-.46-1.99-.74-3.01-1.04-1.67-.49-3.39-.84-5.04-1.41-5.25-1.81-8.72-6.1-8.21-10.05.6-4.68,5.17-8.89,10.42-9.55,1.06-.13,2.13-.15,3.19-.23.05-.15.1-.31.15-.46Z"></path><path class="cls-3" d="m372.66,112.42c0-3.36-.07-6.54.02-9.71.09-3.32,1.87-5.09,4.73-4.93,2.87.16,4.15,1.79,4.13,5.16-.02,3.18,0,6.36,0,9.83,1.83.08,3.64.14,5.45.26.96.06,2.13-.11,2.82.38,1.16.82,2.77,2.08,2.77,3.16,0,1.04-1.62,2.62-2.83,3-1.78.55-3.82.24-5.75.31-.85.03-1.7.08-3.39.15,0,7.56.04,15-.02,22.44-.02,3.33-2.01,5.01-5.21,4.54-2.72-.4-3.68-2.15-3.63-4.73.14-6.5.23-13,.33-19.5.02-.96,0-1.92,0-2.97-2-.29-4.01-.23-5.7-.95-1.16-.49-2.67-2.14-2.57-3.12.12-1.11,1.7-2.49,2.94-2.93,1.57-.55,3.43-.27,5.9-.38Z"></path><path class="cls-3" d="m328.83,131.37c0-2.81-.01-5.63,0-8.44.01-1.57.32-2.97-.54-4.23-.99-1.45-2.38-1.27-2.82-2.48-.51-1.43.73-3.57,2.39-4.43,1.96-1.02,4.15-.08,5.67.56,1.29.55,2.22,1.24,2.8,1.72.6-.31,1.49-.75,2.59-1.22,3.37-1.43,5.85-2.48,9.03-2.36,2.76.11,4.86,1.07,5.72,1.51,1.36.69,2.37,1.5,3.05,2.12,1.29,1.22,1.69,3.03,1.03,4.45-.87,1.88-3.26,2.37-4.71,1.91-1.24-.39-1.2-1.29-2.85-2.12-1.46-.74-2.84-.72-3.53-.72-2.43.03-4.15,1.08-5.14,1.69-.91.57-2.22,1.39-3.09,2.99-.59,1.08-.78,2.06-.8,2.6-.19,5.53-.24,11.06-.42,16.59-.12,3.53-1.66,5.18-4.56,5.13-1.17-.02-2.08-.32-2.76-.89-1.24-1.06-1.4-2.78-1.46-4.48-.09-2.4-.07-5.74.39-9.9Z"></path><path class="cls-3" d="m175.28,115.49c-.06-.22-.16-.54-.36-.9-.5-.9-1.01-1.23-1.45-1.53-1.91-1.31-1.12-4.23,1.29-4.62,1.98-.32,4.26.02,6.16.74,1.55.59,2.56.61,3.97-.21,5.18-3,10.55-3.75,16.08-.84,3.29,1.74,4.78,4.33,3.56,6.35-1.31,2.18-4.5,2.33-7.42.03-2.06-1.62-3.97-1.81-6.13-.48-.9.39-1.66.78-2.29,1.13-1.26.7-1.94,1.09-2.61,1.81-.23.25-.78.89-1.28,2.09-.95,2.28-.75,4.45-.77,5.19-.11,4.1.13,8.36-.27,13.39-.1,1.23-.27,2.86-1.48,3.87-.75.63-1.79.91-3.12.86-1.19-.04-2.13-.37-2.81-.97-1.33-1.18-1.4-3.14-1.41-4.14-.04-3.43.01-11.3.33-21.76Z"></path><path class="cls-3" d="m199.99,216.52c0,6.02-.07,12.05.06,18.07.03,1.16.91,2.29,1.37,3.45.46,1.17,1.47,2.56,1.16,3.49-.33,1-1.82,2.03-2.97,2.27-3.95.83-8.58-3.21-8.5-7.21.26-12.73.49-25.46.89-38.18.05-1.5.63-3.56,1.7-4.3,1.18-.82,3.46-.99,4.79-.39,1.15.52,2.25,2.48,2.3,3.85.24,6.31.11,12.63.11,18.94-.31,0-.61,0-.92,0Z"></path><path class="cls-3" d="m305.7,227.34c0,4.56.08,9.12-.03,13.67-.08,3.15-1.59,4.54-4.47,4.47-2.82-.06-4.34-1.62-4.3-4.71.11-9.02.28-18.04.48-27.06.06-2.64,1.97-4.31,4.51-4.2,2.71.13,4.25,1.68,4.27,4.44.03,4.46,0,8.92,0,13.39-.16,0-.31,0-.47,0Z"></path><path class="cls-3" d="m307.23,200.57c-.04,2.33-2.25,4.14-5.06,4.12-2.72-.01-5.03-1.93-5.04-4.2-.02-2.47,2.23-4.3,5.21-4.24,2.76.06,4.93,1.97,4.89,4.32Z"></path><path class="cls-3" d="m339.15,323.86c-2.28.58-4.57,1.16-6.85,1.75-.08-.33-.17-.67-.25-1,2.31-.57,4.61-1.15,6.92-1.72.06.33.12.65.18.98Z"></path></g></g></g></svg>