<svg xmlns="http://www.w3.org/2000/svg" xmlns:xlink="http://www.w3.org/1999/xlink" id="Layer_2" viewBox="0 0 464.62 407.16"><defs><style>.cls-1{fill:url(#radial-gradient-2);}.cls-1,.cls-2{stroke-width:0px;}.cls-2{fill:url(#radial-gradient);}</style><radialGradient id="radial-gradient" cx="236.72" cy="145.25" fx="236.72" fy="145.25" r="129.99" gradientUnits="userSpaceOnUse"><stop offset="0" stop-color="#fff8b9"></stop><stop offset=".48" stop-color="#f8ba35"></stop><stop offset="1" stop-color="#c58b3a"></stop></radialGradient><radialGradient id="radial-gradient-2" cx="232.31" cy="205.75" fx="232.31" fy="205.75" r="217.41" xlink:href="#radial-gradient"></radialGradient></defs><g id="Layer_2-2"><g id="Layer_5"><path class="cls-2" d="m341.95,173.11c-5.85-11.2-13.77-18.01-22.7-25.7-7.23-6.22-16.39-12.79-39.45-24.35-19.88-9.96-22.99-10.05-42.82-19.32-52.41-24.52-56.82-36.14-58.04-40.25-3.01-10.07-1.3-23.08,5.87-31.66,6.13-7.34,15-9.96,22.65-12.22,9.27-2.74,16.76-2.82,21.44-2.83,19.6-.06,34.35,6.4,40.25,9.3,2.76,1.36,11.44,5.81,20.83,14.16,6.4,5.69,21.87,19.81,27.3,42.67.91,3.82,1.37,7.18,1.61,9.81h10.32c-.06-30.63-.13-61.27-.19-91.9h-9.72c-.52,2.42-1.1,4.46-1.61,6.04-.95,2.97-1.66,5.14-3.26,7.68-1.09,1.73-2.21,3.01-3.01,3.85-1,.52-6.59,2.36-8.93,2.46-3.6.15-6.4-.98-8.49-1.75-2.88-1.07-7.14-2.65-12.3-4.55-11.56-4.27-17.33-6.4-19.08-7.01-5.09-1.79-16.99-5.88-31.82-7.15-19.15-1.63-33.99,2.25-40.72,4.04-6.28,1.68-14.07,3.82-23.26,9.1-1.9,1.09-10.44,6.1-19.55,15.43-2.49,2.55-8.35,8.61-13.01,16.53-3.97,6.75-14.71,27.85-8.09,51.98,4.66,17,15.73,27.46,23.26,34.58,6.08,5.75,11.15,9.02,18.81,13.96,10.27,6.62,17.94,10.3,42.54,21.58,27.54,12.64,29.45,13.32,36.74,17.25,23.23,12.5,29.91,19.59,31.96,21.84,7.06,7.78,16.67,18.37,15.37,32.16-1.38,14.67-14.23,23.76-18.89,27.06-10.45,7.39-20.78,8.67-29.44,9.75-16.85,2.09-31.18-1.24-40.65-4.65-14.58-5.24-23.84-12.87-31.15-19.01-7.35-6.17-22.93-19.56-32.56-42.67-3.67-8.81-5.5-16.68-6.49-22.55h-8.76v102.16h5.54c.81-2.14,8.15-9.91,9.98-11.25,2.4-1.76,4.23-2.58,4.65-2.76.79-.35,2.96-1.25,5.93-1.69,3.67-.54,6.99.05,13.62,1.21,1.15.2,2.38.42,4.05.8,3.4.77,6.02,1.62,7.89,2.24,13.85,4.56,20.13,7.02,24.67,8.49,10.06,3.26,17.89,3.67,28.92,4.25,6.19.33,25.84,1.36,45.3-4.04,6.62-1.84,55.64-15.44,68.76-58.45,1.08-3.55,8.69-29.84-4.25-54.61Z"></path><path class="cls-1" d="m449.04,185.65c-5.72,3.4-9.29,8.13-11.51,12.4.49-5.84.69-11.63.61-17.39.2-.03.39-.04.59-.07,10.16-1.61,17.64-9.65,20.02-17.19,1.18-3.73,1.19-7.58,1.21-13.15.02-4.77-.4-8.75-.81-11.58-2.85.76-8.13,2.59-13.14,7.13-6.08,5.51-8.41,11.97-9.3,15.22-.84-6.42-2.05-12.82-3.62-19.22,3.17-.9,8.81-3.13,12.72-8.6,5.58-7.81,4-17.12,3.46-20.3-.62-3.64-2.04-7.46-2.25-8.01-1.12-2.99-2.37-5.4-3.37-7.15-2.99,1.72-8.05,5.24-11.52,11.48-2.2,3.95-2.96,7.58-3.31,9.28-.48,2.36-.67,4.53-.7,6.43-1.15-3.35-2.4-6.72-3.76-10.09-2.08-5.25-4.43-10.36-7.02-15.34.24-.52.5-1.11.76-1.79.34-.87,1-2.68,1.61-5.66.44-2.11.92-5.13,1.06-8.9.5,1.52.92,3.27,1.16,5.21.82,6.56-.87,12.07-2.34,15.49,2.53-1.05,6.83-3.38,9.28-8.08,1.95-3.73,2-7.56,2.03-10.4.01-1.05,0-3.98-.89-7.67-1.47-6.16-4.47-10.81-6.92-13.83-1.32.71-8.08,4.51-10.48,12.82-1.83,6.32-.08,11.61.6,13.41-.34.07-.68.15-1.01.22-.01-.01-.03-.03-.04-.05-4.35-7.28-9.21-14.25-14.51-20.87-.17-.39-.36-.78-.57-1.18.33.33.65.63.96.91-.52-.74-1.03-1.48-1.55-2.23.02-1.77.04-3.53.06-5.3l.15-12.4c.94,2.92,1.86,6.66,2.29,11.06.33,3.39.3,6.44.1,9.02,1.69-1.18,4.94-3.87,6.5-8.49,1.46-4.31.65-7.99.2-10.11-1.03-4.85-3.41-8.07-6.2-11.87-2.24-3.05-4.43-5.33-6.04-6.86-1.93,2.35-4.69,6.52-5.49,12.25-1.01,7.28,1.62,12.88,2.97,15.64.28.58.58,1.13.88,1.67-.81-.7-1.7-1.36-2.68-1.96-5.23-5.75-10.79-11.19-16.61-16.34,0-.02,0-.03-.01-.05,1.73-2.01,6.08-7.7,5.4-15.07-.38-4.17-2.21-7.1-4.15-10.11-2.1-3.28-6.43-8.95-14.56-13.65-1.5,3.2-3.49,8.76-2.83,15.47.17,1.71.46,4.44,1.92,7.58.82,1.75,1.74,3.08,4.4,6.03-1.11-.39-2.17-.65-3.11-.85-5.98-4.56-12.19-8.85-18.57-12.81l-1.04,1.71c5.47,3.22,10.74,6.74,15.81,10.53-2.17-.17-6.47-.19-11.38,1.62-6.31,2.33-10.12,6.39-11.8,8.43,1.81.56,4.52,1.46,7.75,2.76,4.87,1.96,4.4,2.21,6.54,2.83,6.69,1.94,12.96-.03,14.29-.47,1.56-.52,1.92-.83,3.78-1.35,2.33-.65,4.42-.9,6.12-.98,4.2,3.93,8.21,8.05,12.03,12.36-3.33-.72-6.18-.54-7.43-.46-1.65.1-4.76.33-8.36,2.02-2.75,1.29-4.69,2.93-5.9,4.11,2.85,3.37,5.69,5.63,7.79,7.08,3.33,2.3,6.44,4.45,10.92,4.99,3.29.39,6.78-.15,7.55-.27,2.65-.41,4.1-.99,6.74-.94.65.01,1.24.07,1.81.14,2.55,3.63,4.97,7.35,7.26,11.16-7.28-1.76-13.77,1.05-15.13,1.65-1.65.72-4.09,1.99-6.67,4.25,2.26,1.8,4.05,3.43,5.33,4.65,4.74,4.53,5.65,6.54,9.17,8.29,2.27,1.13,4.35,1.52,5.93,1.82,2.72.51,4.33.39,8.09.47,1.22.03,2.79.08,4.62.19,2.11,4.59,4.04,9.27,5.79,14.01-4.82-3.23-9.68-3.64-12.56-3.89-3.29-.28-6.06.04-7.77.33-1.88.32-3.45.76-4.64,1.16.52,2.05,4.08,15.11,16.99,21.44,5.56,2.73,10.9,3.24,14.71,3.14,1.07,4.45,1.98,8.94,2.72,13.46-1.95-1.4-4.29-2.79-7.05-3.93-7.64-3.16-14.42-2.8-17.6-2.43.12,2.35,1.03,15.47,11.93,24.27,1.85,1.49,7.44,5.98,15.17,6.82.14,4.27.14,8.55-.02,12.83-.02.78-.06,1.56-.09,2.34-.41-.99-.9-1.98-1.5-2.97-4.63-7.57-13.71-11.8-23.46-11.12-.58,3.01-1.83,11.67,2.83,20.64,1.24,2.39,5.98,11.51,15.71,14.08,1.53.4,2.91.57,4.08.64-.97,5.47-2.22,10.89-3.72,16.24-.42-1.32-.97-2.73-1.71-4.2-2.47-4.9-5.67-7.8-7.82-9.71-4.94-4.39-10.13-6.77-14.02-8.09-.45,2.6-.95,6.24-1.14,10.63-.21,4.87.07,9.3.34,11.35,1.46,10.81,12.09,19.86,16.19,23.07-.77,1.8-1.57,3.6-2.39,5.38-.72,1.55-1.46,3.08-2.22,4.6-.18-1.14-.44-2.31-.8-3.52-4.08-13.53-17.33-19.07-19.55-19.96-1.05,2.06-2.17,4.62-3.07,7.63,0,0-1.56,5.24-1.78,10.3-.32,7.19,3.58,17.97,11.92,28.37-2.12,3.15-4.32,6.23-6.62,9.26.27-2.23.25-4.69-.31-7.29-1.27-5.92-4.74-9.86-6.84-12.24-3.37-3.82-6.93-6.13-9.34-7.45-1.55,1.98-3.7,5.03-5.63,9.07-2.4,5.01-6.44,13.46-4.35,22.75.97,4.3,3.22,8.66,4.75,11.63,1.08,2.1,2.1,3.8,2.88,5.06-3.69,3.66-7.53,7.17-11.49,10.53.42-.69.82-1.42,1.19-2.19.6-1.24,5.27-11.38.5-22.46-2.51-5.83-6.51-9.31-8.63-10.92-2.41,1.81-5.85,4.8-8.97,9.28-1.79,2.57-7.08,10.39-7.21,21.74-.1,8.58,2.77,15.11,4.63,18.53-2.37,1.58-4.78,3.12-6.72,4.26-1.25.78-3.22,1.99-4.94,2.96,2.02-3.01,2.98-5.87,3.52-7.54,4.68-14.49-3.89-27.78-5.33-29.93-1.76,1.71-4.57,4.39-8.09,7.62-7.04,6.45-7.96,6.96-9.71,9.3-4.21,5.65-5.44,12.33-5.76,14.83-.94,7.19.68,13,1.77,16.03,2.51-3.16,5.24-7.04,7.84-11.68,2.82-5.04,4.8-9.76,6.22-13.8-.67,3.43-1.76,7.55-3.59,12.02-2.36,5.74-5.2,10.27-7.67,13.62-5.58,2.54-11.35,4.75-17.19,6.51-.36.12-.73.21-1.09.32,3.88-2.86,6.76-7.16,7.15-7.74,0,0,1.53-2.32,2.63-4.85,2.48-5.7,2.62-15.64-.61-26.9-1.46.79-3.61,1.97-6.18,3.46-7.01,4.06-10.51,6.09-13.54,8.68-4.92,4.21-7.83,8.44-9.63,11.16.65-5.96-.71-11.06-1.39-13.22-3.17.52-6.34,1.03-9.51,1.55-4.33.97-12.58,3.49-19.82,10.52-4.54,4.41-6.69,8.74-8.52,12.41-1.49,2.99-2.24,5.32-2.48,7.8-.26-2.19-1.01-4.62-2.58-7.8-1.75-3.54-3.91-7.93-8.52-12.41-7.24-7.03-15.49-9.55-19.82-10.52-3.17-.52-6.34-1.03-9.51-1.55-.67,2.16-2.04,7.26-1.39,13.22-1.81-2.72-4.71-6.95-9.63-11.16-3.02-2.58-6.53-4.61-13.54-8.68-2.57-1.49-4.72-2.67-6.18-3.46-3.22,11.26-3.08,21.2-.61,26.9,1.1,2.53,2.63,4.85,2.63,4.85.38.58,3.26,4.88,7.15,7.74-.36-.11-.73-.2-1.09-.32-5.84-1.76-11.61-3.97-17.19-6.51-2.47-3.34-5.32-7.88-7.67-13.62-1.83-4.47-2.92-8.58-3.59-12.02,1.41,4.05,3.4,8.77,6.22,13.8,2.6,4.64,5.33,8.52,7.84,11.68,1.09-3.03,2.71-8.84,1.77-16.03-.33-2.5-1.56-9.18-5.76-14.83-1.74-2.34-2.67-2.85-9.71-9.3-3.52-3.23-6.33-5.91-8.09-7.62-1.44,2.16-10,15.44-5.33,29.93.54,1.67,1.51,4.54,3.52,7.54-1.72-.97-3.69-2.18-4.94-2.96-1.94-1.14-4.35-2.67-6.72-4.26,1.86-3.42,4.73-9.96,4.63-18.53-.13-11.34-5.42-19.17-7.21-21.74-3.12-4.48-6.56-7.47-8.97-9.28-2.12,1.61-6.12,5.09-8.63,10.92-4.77,11.08-.1,21.22.5,22.46.37.77.77,1.5,1.19,2.19-3.96-3.36-7.8-6.87-11.49-10.53.79-1.26,1.8-2.96,2.88-5.06,1.54-2.97,3.79-7.33,4.75-11.63,2.09-9.3-1.95-17.75-4.35-22.75-1.93-4.04-4.07-7.08-5.63-9.07-2.41,1.32-5.97,3.63-9.34,7.45-2.1,2.38-5.57,6.32-6.84,12.24-.56,2.6-.58,5.06-.31,7.29-2.29-3.02-4.5-6.11-6.62-9.26,8.34-10.4,12.23-21.18,11.92-28.37-.22-5.07-1.78-10.3-1.78-10.3-.9-3.01-2.02-5.57-3.07-7.63-2.22.89-15.47,6.42-19.55,19.96-.36,1.21-.62,2.38-.8,3.52-.76-1.53-1.5-3.06-2.22-4.6-.83-1.78-1.62-3.57-2.39-5.38,4.1-3.2,14.73-12.26,16.19-23.07.28-2.04.55-6.48.34-11.35-.19-4.39-.69-8.03-1.14-10.63-3.89,1.32-9.08,3.7-14.02,8.09-2.15,1.91-5.35,4.8-7.82,9.71-.74,1.47-1.29,2.88-1.71,4.2-1.5-5.35-2.74-10.77-3.72-16.24,1.17-.06,2.55-.23,4.08-.64,9.72-2.57,14.46-11.69,15.71-14.08,4.66-8.96,3.41-17.63,2.83-20.64-9.75-.68-18.83,3.55-23.46,11.12-.61.99-1.09,1.99-1.5,2.97-.03-.78-.07-1.56-.09-2.34-.16-4.28-.16-8.55-.02-12.83,7.73-.83,13.32-5.32,15.17-6.82,10.91-8.8,11.81-21.92,11.93-24.27-3.18-.37-9.95-.73-17.6,2.43-2.76,1.14-5.1,2.52-7.05,3.93.75-4.52,1.66-9.01,2.72-13.46,3.81.1,9.15-.41,14.71-3.14,12.91-6.33,16.47-19.39,16.99-21.44-1.19-.39-2.76-.84-4.64-1.16-1.71-.29-4.48-.61-7.77-.33-2.88.24-7.74.65-12.56,3.89,1.75-4.74,3.68-9.41,5.79-14.01,1.84-.11,3.4-.16,4.62-.19,3.76-.09,5.37.04,8.09-.47,1.58-.3,3.66-.69,5.93-1.82,3.52-1.76,4.42-3.76,9.17-8.29,1.28-1.22,3.07-2.85,5.33-4.65-2.58-2.26-5.03-3.53-6.67-4.25-1.36-.59-7.85-3.4-15.13-1.65,2.29-3.8,4.71-7.52,7.26-11.16.57-.07,1.16-.13,1.81-.14,2.64-.05,4.09.53,6.74.94.77.12,4.26.66,7.55.27,4.48-.54,7.59-2.69,10.92-4.99,2.09-1.45,4.94-3.71,7.79-7.08-1.2-1.18-3.15-2.82-5.9-4.11-3.6-1.69-6.71-1.92-8.36-2.02-1.25-.08-4.11-.26-7.43.46,3.81-4.31,7.83-8.43,12.03-12.36,1.7.08,3.8.33,6.12.98,1.86.52,2.21.82,3.78,1.35,1.33.45,7.6,2.41,14.29.47,2.14-.62,1.67-.87,6.54-2.83,3.23-1.3,5.94-2.2,7.75-2.76-1.68-2.03-5.49-6.1-11.8-8.43-4.92-1.82-9.21-1.8-11.38-1.62,5.07-3.79,10.34-7.31,15.81-10.53l-1.04-1.71c-6.38,3.96-12.59,8.24-18.57,12.81-.94.2-2,.46-3.11.85,2.66-2.95,3.58-4.27,4.4-6.03,1.46-3.14,1.75-5.88,1.92-7.58.65-6.71-1.34-12.27-2.83-15.47-8.13,4.7-12.46,10.37-14.56,13.65-1.93,3.02-3.76,5.94-4.15,10.11-.68,7.37,3.67,13.06,5.4,15.07,0,.02,0,.03-.01.05-5.82,5.15-11.38,10.6-16.61,16.34-.98.59-1.87,1.25-2.68,1.96.3-.53.6-1.09.88-1.67,1.35-2.76,3.98-8.36,2.97-15.64-.8-5.73-3.57-9.9-5.49-12.25-1.6,1.53-3.79,3.81-6.04,6.86-2.79,3.79-5.17,7.02-6.2,11.87-.45,2.12-1.26,5.81.2,10.11,1.56,4.62,4.81,7.31,6.5,8.49-.19-2.59-.23-5.63.1-9.02.43-4.4,1.35-8.14,2.29-11.06l.15,12.4c.02,1.77.04,3.53.06,5.3-.52.74-1.03,1.48-1.55,2.23.31-.28.62-.58.96-.91-.21.4-.39.8-.57,1.18-5.3,6.63-10.16,13.6-14.51,20.87-.01.01-.03.03-.04.05-.34-.07-.68-.15-1.01-.22.68-1.8,2.43-7.09.6-13.41-2.4-8.31-9.15-12.11-10.48-12.82-2.45,3.02-5.45,7.67-6.92,13.83-.88,3.69-.9,6.61-.89,7.67.03,2.85.08,6.67,2.03,10.4,2.46,4.69,6.76,7.03,9.28,8.08-1.47-3.43-3.16-8.93-2.34-15.49.24-1.94.67-3.68,1.16-5.21.15,3.77.62,6.79,1.06,8.9.62,2.98,1.28,4.79,1.61,5.66.26.68.52,1.27.76,1.79-2.58,4.98-4.94,10.1-7.02,15.34-1.35,3.37-2.6,6.73-3.76,10.09-.03-1.9-.22-4.07-.7-6.43-.35-1.7-1.12-5.33-3.31-9.28-3.47-6.25-8.53-9.77-11.52-11.48-1.01,1.75-2.25,4.15-3.37,7.15-.21.56-1.63,4.38-2.25,8.01-.54,3.19-2.12,12.5,3.46,20.3,3.91,5.47,9.55,7.7,12.72,8.6-1.57,6.41-2.78,12.81-3.62,19.22-.89-3.24-3.22-9.7-9.3-15.22-5.01-4.54-10.29-6.37-13.14-7.13-.41,2.83-.83,6.81-.81,11.58.02,5.57.03,9.42,1.21,13.15,2.39,7.54,9.86,15.58,20.02,17.19.2.03.39.04.59.07-.09,5.76.12,11.56.61,17.39-2.22-4.27-5.79-9.01-11.51-12.4-6.23-3.7-12.33-4.22-15.57-4.25,0,2.15.06,5.19.34,8.83.31,4.11.46,6.17.98,8.35.48,2,1.8,7.28,6.3,12.15,1.43,1.55,4.98,5.3,11.06,7.01,4.9,1.38,9.06.77,11.18.3.61,3.19,1.3,6.4,2.08,9.63.71,2.46,1.38,5.03,2.08,7.59-2.74-2.64-5.34-4.53-7.36-5.82-2.87-1.84-7.31-4.62-13.78-5.9-4.1-.81-7.6-.75-9.98-.54.14,3.95,1.03,13.16,7.55,21.84,2.28,3.03,7.39,9.85,16.85,12.4,6.27,1.69,11.67.76,14.49.06-.79-.8-2.06-2.03-3.7-3.43-2.04-1.73-2.81-2.16-7.15-5.39-3.69-2.75-5.48-4.19-5.97-4.58-1.56-1.26-2.82-2.33-3.65-3.05,3.79,1.58,6.76,3.28,8.87,4.63,2.16,1.38,4.04,2.59,6.14,4.62,2.72,2.64,4.43,5.31,5.46,7.21.05,0,.09-.01.14-.02.39.93.77,1.84,1.15,2.71,2.18,4.63,4.46,9.24,6.89,13.76-4.86-3.82-9.39-6.12-12.62-7.49-4-1.69-8.03-3.35-13.56-3.42-3.95-.05-7.18.72-9.3,1.4.25,1.07.63,2.57,1.21,4.31.82,2.46,2.59,7.61,6.61,12.74,1.75,2.24,5.45,6.87,12.08,10.02,2.78,1.32,8.91,4.13,16.64,2.79,4-.69,7.02-2.26,8.83-3.37-3.49-1.58-7.07-3.28-10.72-5.12-5.2-2.62-10.1-5.29-14.7-7.96,3.82.77,8.93,2.21,14.49,5.06,4.51,2.3,8.06,4.89,10.73,7.14,4.19,6.12,8.71,12.08,13.5,17.8-9.9-8.89-21.97-12.62-31.71-8.9-2.23.85-5.15,2.4-8.09,5.39,1.29,1.61,3.12,3.85,5.39,6.47,2.38,2.74,3.92,4.51,6.2,6.74,2.03,1.98,3.32,3.24,5.22,4.63,1.36.99,4.41,3.05,8.67,4.54,2.41.84,8.56,2.89,16.31,1.35,5.44-1.08,9.44-3.48,11.85-5.25.82.8,1.63,1.61,2.46,2.39,2.07,1.94,6.75,6.06,8.99,8.02.18.15.37.29.54.44-2.02-.76-4.37-1.5-7.06-2.09-4.54-.99-11.06-2.42-18.99-.49-3,.73-8.14,2.41-13.57,6.67,2.94,3.89,9.53,11.4,20.49,15.51,3.55,1.33,9.81,3.14,17.51,2.68,4.05-.24,8.81-.58,13.63-3.76,2.63-1.74,4.44-3.77,5.63-5.38.41.28.8.54,1.14.77,3.29,2.12,6.94,4.16,10.28,6.27,1.5.85,4.03,2.15,6.39,3.37-3.87-.74-7.29-1.13-10.09-1.33-15.69-1.11-22.2,2.78-23.87,3.84-3.59,2.29-5.99,5.04-7.48,7.08,2.34,2.34,6.09,5.57,11.36,8.2,3.09,1.54,19.47,9.26,35.96,1.5,3.09-1.46,8.5-4.55,13.5-10.86,4.93,1.78,9.92,3.37,14.95,4.78,1.13.29,2.29.61,3.47.93-4.2-.14-8.22-.13-13.21.9-8.12,1.68-13.84,5.05-16.02,6.43-6.03,3.82-10.01,8.25-12.4,11.37,2.39,1.32,5.78,2.97,10.02,4.39,2.37.8,10.7,3.42,22.24,3.09,7.39-.21,11.32-.32,16.08-2.76.59-.3,1.14-.62,1.68-.96-3.47,3.85-5.62,7.67-6.91,10.39,2.59.64,6.44,1.47,11.16,2.03,9.9,1.18,21.36,2.54,32.54-3.03,3.65-1.82,11.52-5.74,14.16-14.11.34-1.08.55-2.12.69-3.12.13,1,.34,2.04.69,3.12,2.64,8.37,10.5,12.28,14.16,14.11,11.18,5.58,22.65,4.21,32.54,3.03,4.72-.56,8.57-1.39,11.16-2.03-1.29-2.72-3.44-6.53-6.91-10.39.54.33,1.1.65,1.68.96,4.75,2.44,8.69,2.55,16.08,2.76,11.54.33,19.87-2.29,22.24-3.09,4.23-1.42,7.62-3.08,10.02-4.39-2.38-3.12-6.37-7.55-12.4-11.37-2.18-1.38-7.9-4.75-16.02-6.43-4.98-1.03-9.01-1.04-13.21-.9,1.17-.32,2.33-.64,3.47-.93,5.02-1.41,10.02-3,14.95-4.78,5,6.31,10.41,9.41,13.5,10.86,16.5,7.76,32.87.04,35.96-1.5,5.27-2.63,9.02-5.87,11.36-8.2-1.5-2.04-3.89-4.79-7.48-7.08-1.66-1.06-8.18-4.95-23.87-3.84-2.8.2-6.21.59-10.09,1.33,2.37-1.22,4.89-2.52,6.39-3.37,3.34-2.12,6.99-4.15,10.28-6.27.34-.22.72-.49,1.14-.77,1.19,1.61,2.99,3.64,5.63,5.38,4.82,3.18,9.59,3.52,13.63,3.76,7.71.46,13.97-1.36,17.51-2.68,10.97-4.1,17.55-11.62,20.49-15.51-5.43-4.26-10.57-5.94-13.57-6.67-7.93-1.93-14.45-.51-18.99.49-2.69.59-5.03,1.33-7.06,2.09.18-.15.37-.29.54-.44,2.25-1.96,6.92-6.07,8.99-8.02.83-.78,1.64-1.59,2.46-2.39,2.41,1.77,6.41,4.17,11.85,5.25,7.75,1.54,13.91-.51,16.31-1.35,4.26-1.48,7.31-3.55,8.67-4.54,1.9-1.39,3.2-2.65,5.22-4.63,2.28-2.23,3.82-4,6.2-6.74,2.28-2.62,4.11-4.86,5.39-6.47-2.94-3-5.86-4.54-8.09-5.39-9.74-3.72-21.81,0-31.71,8.9,4.79-5.72,9.31-11.68,13.5-17.8,2.67-2.26,6.22-4.84,10.73-7.14,5.56-2.84,10.68-4.29,14.49-5.06-4.6,2.66-9.49,5.33-14.7,7.96-3.65,1.84-7.23,3.54-10.72,5.12,1.81,1.11,4.83,2.68,8.83,3.37,7.73,1.34,13.86-1.47,16.64-2.79,6.63-3.15,10.33-7.78,12.08-10.02,4.02-5.14,5.78-10.28,6.61-12.74.58-1.75.97-3.24,1.21-4.31-2.12-.67-5.34-1.45-9.3-1.4-5.53.07-9.56,1.73-13.56,3.42-3.23,1.37-7.77,3.67-12.62,7.49,2.44-4.52,4.71-9.14,6.89-13.76.38-.88.76-1.79,1.15-2.71.05,0,.09.01.14.02,1.03-1.89,2.73-4.57,5.46-7.21,2.1-2.03,3.98-3.25,6.14-4.62,2.11-1.35,5.08-3.05,8.87-4.63-.83.72-2.09,1.79-3.65,3.05-.48.39-2.28,1.84-5.97,4.58-4.33,3.23-5.11,3.66-7.15,5.39-1.65,1.4-2.91,2.63-3.7,3.43,2.82.7,8.22,1.63,14.49-.06,9.46-2.55,14.58-9.37,16.85-12.4,6.52-8.69,7.41-17.89,7.55-21.84-2.38-.21-5.88-.27-9.98.54-6.48,1.28-10.91,4.07-13.78,5.9-2.02,1.29-4.62,3.18-7.36,5.82.71-2.55,1.37-5.13,2.08-7.59.78-3.23,1.47-6.44,2.08-9.63,2.12.47,6.28,1.08,11.18-.3,6.07-1.71,9.63-5.46,11.06-7.01,4.49-4.87,5.82-10.15,6.3-12.15.52-2.18.67-4.24.98-8.35.27-3.64.33-6.69.34-8.83-3.24.02-9.34.55-15.57,4.25Zm-3.66-22.27c1.27-1.35,2.53-2.55,3.76-3.62-.9,2.37-2.03,4.94-3.44,7.63-2.1,4.02-4.36,7.4-6.47,10.17-.39.11-.77.21-1.16.32-.04-1.41-.11-2.81-.19-4.22,1.76-3.17,4.17-6.75,7.49-10.28Zm-85.73-120.6c-3.12-.4-5.72-1.19-7.68-1.94,2.77.06,5.74,0,8.9-.2,1.79-.12,3.52-.29,5.17-.49.07.06.13.12.2.17.03.88.06,1.76.09,2.64-1.84.14-4.11.15-6.68-.18Zm11.73-2.04c-.91-1.04-1.82-2.09-2.73-3.13.26-1.35.44-3.05.3-4.98-.33-4.68-2.32-8.13-3.54-9.89,1.36,1.29,4.22,4.34,5.56,9.2,1.05,3.79.72,7.01.4,8.8Zm16.58,28.96c-3.77-.89-6.97-2.14-9.57-3.37,2.22-.3,5.2-.44,8.63.13,1.79.3,3.37.74,4.72,1.21l1.48,2.97c-1.63-.2-3.39-.5-5.26-.94Zm24.78,33.49c-.59-.31-1.69-.89-2.98-1.52-1.93-.94-3.65-1.69-4.96-2.22-1.72-.71-3.79-1.5-6.17-2.28,1.98-.07,4.56.03,7.48.66,2.14.46,4.01,1.11,5.59,1.78.69,1.36,1.37,2.73,2.03,4.1-.31-.17-.64-.34-1-.53Zm11.22,34.43c-2.51-1.75-4.19-3.18-5.36-4.15-1.65-1.37-4.07-3.29-7.28-5.56,3.03,1.12,5.83,2.25,8.39,3.34,2.63,1.12,4.3,1.9,5.59,3,.49,1.72.96,3.45,1.4,5.18-.68-.43-1.63-1.03-2.74-1.8ZM103.75,40.64c3.15.21,6.13.26,8.9.2-1.97.76-4.56,1.54-7.68,1.94-2.56.33-4.83.32-6.68.18.03-.88.06-1.76.09-2.64.07-.06.13-.12.2-.17,1.65.2,3.38.36,5.17.49Zm-10.11-8.7c1.35-4.86,4.2-7.92,5.56-9.2-1.21,1.76-3.21,5.2-3.54,9.89-.14,1.93.04,3.62.3,4.98-.91,1.04-1.82,2.09-2.73,3.13-.32-1.78-.64-5.01.4-8.8Zm-20.76,35.73c1.34-.47,2.93-.91,4.72-1.21,3.43-.58,6.41-.43,8.63-.13-2.6,1.23-5.81,2.48-9.57,3.37-1.87.44-3.63.74-5.26.94l1.48-2.97Zm-19.97,31.94c1.58-.68,3.45-1.32,5.59-1.78,2.92-.63,5.5-.73,7.48-.66-2.38.78-4.44,1.56-6.17,2.28-1.3.54-3.02,1.28-4.96,2.22-1.29.63-2.39,1.2-2.98,1.52-.35.19-.68.36-1,.53.66-1.38,1.34-2.74,2.03-4.1Zm-13.6,34.63c1.29-1.1,2.96-1.88,5.59-3,2.56-1.09,5.36-2.21,8.39-3.34-3.21,2.27-5.63,4.19-7.28,5.56-1.17.97-2.85,2.4-5.36,4.15-1.12.77-2.06,1.38-2.74,1.8.45-1.73.91-3.46,1.4-5.18Zm-12.77,43.64c-.39-.11-.77-.21-1.16-.32-2.11-2.77-4.37-6.15-6.47-10.17-1.41-2.69-2.54-5.27-3.44-7.63,1.23,1.07,2.5,2.27,3.76,3.62,3.32,3.54,5.73,7.11,7.49,10.28-.08,1.4-.14,2.81-.19,4.22Zm-4.9,31.5c-3.15-3.53-5.93-6.98-8.36-10.25,2.4,2.3,4.47,4.06,5.93,5.26,3.12,2.56,4.69,3.53,6.88,5.8,1.26,1.31,2.24,2.55,3,3.6.23,1.34.47,2.69.73,4.04-2.64-2.53-5.39-5.33-8.18-8.45Zm14.26-40.01c3.44-3.45,6.85-6.17,9.91-8.29-2.4,3.21-4.86,6.45-7.38,9.71-1.96,2.53-3.91,5.03-5.87,7.48-.17,0-.34.02-.51.03.08-1.7.18-3.4.3-5.09,1.08-1.25,2.25-2.54,3.54-3.83Zm-5.76-33.07c-1.98-3.2-2.96-5.9-3.64-7.79-.83-2.31-1.74-5.38-2.33-9.1,1.79,1.87,4.02,4.57,6,8.17,1.5,2.72,2.49,5.29,3.15,7.47-.4,1.4-.79,2.8-1.15,4.2-.59-.77-1.29-1.75-2.03-2.95Zm3.61,76.83c1.31-4.13,2.98-6.85,4.34-8.6.26-.33.76-.95,1.75-2.16,2.19-2.67,3.98-4.82,5.19-6.26-.76,1.06-1.86,2.73-2.9,4.92-1.14,2.4-1.67,4.28-1.89,4.99-.71,2.29-2.28,5.56-6.07,9.86-.15-.91-.29-1.82-.43-2.74Zm10.28,37.82c-.2-1.5-.26-3.19,0-5.03,1.06-7.83,6.68-12.24,7.85-13.12-1.83,3.89-3.64,8.4-5.16,13.52-.71,2.41-1.29,4.72-1.77,6.93-.31-.76-.61-1.53-.91-2.3Zm18.19,35.32c-.12-.89-.24-1.85-.33-2.87-.32-3.33-.53-5.54-.25-8.04.25-2.24,1.05-5.96,3.91-10.22-1.06,4.43-1.92,9.87-1.97,16.1-.02,2.72.11,5.25.34,7.59-.57-.85-1.13-1.71-1.69-2.57Zm4.72,30.32c-.31-.07-.64-.15-1.06-.26-3.35-.9-5.96-2.14-7.68-3.06,3.65.58,6.73,1.13,9.05,1.57,10.29,1.94,14.09,3.73,15.78,4.53.49.23.96.47,1.39.69.63.64,1.26,1.27,1.9,1.91-1.07-.81-18.02-5.09-19.37-5.38Zm17.31-2.12c-.19-2.42-.28-5.05-.2-7.88.14-5.27.82-9.93,1.66-13.86.14,6.29.54,12.87,1.27,19.72.18,1.71.38,3.39.6,5.06.24.39.49.78.73,1.17-1.37-1.39-2.72-2.79-4.06-4.22Zm18.16,30.95c-4.98-.37-9.62-.94-13.89-1.62,4-.26,8.1-.48,12.28-.65,3.54-.14,7-.23,10.42-.29,1.41.99,2.94,2.06,4.29,3-4.08.03-8.45-.09-13.1-.43Zm12.06-4.44c-.99-2.94-1.95-6.43-2.62-10.39-.69-4.09-.93-7.78-.95-10.92.83,3.08,1.72,6.23,2.7,9.44,1.57,5.14,3.23,10.03,4.94,14.7-1.44-.97-2.83-1.94-4.07-2.83Zm25.01,25.44c-3.56.32-5.67.52-8.76.77-4.39.36-8.01.62-10.46.79,1.97-.45,4.62-1.04,7.76-1.66,2.67-.53,6.53-1.29,10.79-1.89,2.61-.37,5.87-.73,9.66-.97,1.52.6,3.04,1.18,4.58,1.75-5.7.51-10.32.92-13.57,1.22Zm129.73-1.05c-.18,2.28.12,4.63,1.66,6.13.54.52,1.1.83,1.52,1.01,1.42-1.52,3.22-3.46,5.26-5.76,1.54-1.73,3.82-4.3,6.67-7.79,1.77-2.16,3.9-4.83,6.24-7.96-.73,1.77-1.78,4.1-3.27,6.74-1.04,1.85-2.81,4.95-5.8,8.49-1.53,1.82-3.69,4.11-6.57,6.47.12.02.27.05.44.07-3.72.48-7.44.89-11.15,1.33-2.93.27-5.82.83-8.72,1.35,5.64-2.16,10.42-5.64,13.72-10.11Zm-48.27.94c2.7,2.11,6.6,5.23,11.44,9.34,7.11-5.76,11.74-8.8,14.82-10.55,1.21-.69,4.19-2.31,7.04-5.53,1.27-1.43,2.14-2.75,2.67-3.64-1,2.9-2.82,6.9-6.17,10.79-1.24,1.44-2.99,3.43-5.8,5.26-1.13.74-1.8,1.04-7.01,3.78-1.54.81-2.79,1.47-3.6,1.9h-4.03c-1.24-.57-2.76-1.33-4.43-2.31-.81-.47-2.71-1.61-5.06-3.37-1.98-1.48-4.52-3.39-7.01-6.2-1.73-1.95-4.16-5.16-6.08-9.84,1.48,1.17,3.73,2.96,6.49,5.12,3.4,2.67,5.14,4.01,6.74,5.26Zm-40.63-7.35c2.85,3.48,5.14,6.06,6.67,7.79,2.04,2.3,3.84,4.25,5.26,5.76.41-.18.98-.49,1.52-1.01,1.54-1.5,1.84-3.85,1.66-6.13,3.31,4.47,8.08,7.95,13.72,10.11-2.9-.53-5.8-1.09-8.72-1.35-3.7-.44-7.43-.85-11.15-1.33.17-.03.32-.05.44-.07-2.88-2.36-5.04-4.66-6.57-6.47-2.99-3.54-4.76-6.64-5.8-8.49-1.49-2.64-2.54-4.98-3.27-6.74,2.34,3.12,4.46,5.79,6.24,7.96Zm-7.35,23.76c-2.9.73-7.01,1.6-12.1,2.12,2.83-.93,6.18-2.04,9.94-3.34,7.32-2.51,10.35-3.68,13.87-5.98.32-.21.62-.42.92-.62,2.12.55,4.25,1.07,6.37,1.53-1.92.7-4.25,1.54-6.9,2.45-5.7,1.97-8.63,2.97-12.1,3.84Zm14.89,4.63c1.2-1.45,2.04-2.72,2.57-3.52,1.69-2.58,2.78-5.02,3.5-7,4.81.95,9.57,1.53,14.07,1.38,1.45-.09,2.94-.15,4.42-.2-3.8.66-7.79,1.68-11.87,3.18-3.69,1.36-8.13,3.04-12.68,6.17Zm62.84,3.46c-3.12-1.45-5.46-2.82-10.01-5.51-3.49-2.06-8.35-5.08-8.37-5.08-.02,0-4.88,3.02-8.37,5.08-4.55,2.69-6.89,4.06-10.01,5.51-2.29,1.06-5.59,2.44-9.76,3.69,5.28-3.02,10.76-6.37,16.38-10.1,3.4-2.26,6.64-4.51,9.74-6.76.56-.01,1.14-.02,1.69-.03.56.01,1.78.02,2.34.03,3.1,2.25,6.34,4.51,9.74,6.76,5.62,3.73,11.1,7.08,16.38,10.1-4.17-1.25-7.47-2.63-9.76-3.69Zm13.39-9.62c-4.08-1.5-8.07-2.51-11.87-3.18,1.48.06,2.97.11,4.42.2,4.5.15,9.26-.44,14.07-1.38.72,1.98,1.81,4.42,3.5,7,.52.8,1.37,2.07,2.57,3.52-4.55-3.13-8.99-4.81-12.68-6.17Zm29.74.32c3.76,1.29,7.11,2.41,9.94,3.34-5.09-.52-9.21-1.39-12.1-2.12-3.47-.88-6.4-1.88-12.1-3.84-2.65-.91-4.98-1.75-6.9-2.45,2.13-.46,4.26-.97,6.37-1.53.29.2.59.41.92.62,3.52,2.31,6.55,3.47,13.87,5.98Zm42.78-15.2c3.14.62,5.79,1.21,7.76,1.66-2.45-.17-6.06-.42-10.46-.79-3.09-.25-5.19-.45-8.76-.77-3.25-.29-7.87-.71-13.57-1.22,1.53-.56,3.06-1.15,4.58-1.75,3.79.24,7.04.61,9.66.97,4.26.6,8.12,1.36,10.79,1.89Zm9.49-22.51c1.71-4.67,3.37-9.56,4.94-14.7.98-3.21,1.88-6.36,2.7-9.44-.02,3.14-.26,6.84-.95,10.92-.67,3.97-1.62,7.45-2.62,10.39-1.24.89-2.63,1.85-4.07,2.83Zm30.02,0c-4.27.68-8.91,1.25-13.89,1.62-4.65.34-9.02.46-13.1.43,1.35-.93,2.88-2.01,4.29-3,3.42.06,6.88.15,10.42.29,4.18.17,8.27.39,12.28.65Zm.22-25.12c.24-.39.49-.78.73-1.17.22-1.66.42-3.35.6-5.06.73-6.85,1.13-13.43,1.27-19.72.84,3.92,1.52,8.59,1.66,13.86.08,2.83-.02,5.45-.2,7.88-1.33,1.43-2.68,2.83-4.06,4.22Zm21.05-3.85c2.33-.44,5.4-.99,9.05-1.57-1.72.93-4.33,2.16-7.68,3.06-1.84.5-19.67,5.12-20.44,5.64.64-.63,1.27-1.27,1.9-1.91.44-.23.9-.46,1.39-.69,1.68-.8,5.49-2.59,15.78-4.53Zm5.36-31.43c-.1,1.02-.21,1.97-.33,2.87-.56.86-1.12,1.72-1.69,2.57.23-2.34.36-4.87.34-7.59-.06-6.23-.92-11.67-1.97-16.1,2.85,4.26,3.65,7.98,3.91,10.22.28,2.5.07,4.71-.25,8.04Zm17.86-32.45c-.3.77-.6,1.54-.91,2.3-.48-2.21-1.06-4.52-1.77-6.93-1.52-5.12-3.33-9.64-5.16-13.52,1.18.88,6.8,5.29,7.85,13.12.25,1.84.19,3.53,0,5.03Zm9.85-35.08c-3.79-4.3-5.36-7.57-6.07-9.86-.22-.71-.74-2.59-1.89-4.99-1.04-2.19-2.14-3.86-2.9-4.92,1.21,1.44,3,3.59,5.19,6.26.99,1.21,1.49,1.82,1.75,2.16,1.36,1.75,3.03,4.47,4.34,8.6-.14.91-.28,1.83-.43,2.74Zm1.62-37.6c-1.95-2.46-3.91-4.95-5.87-7.48-2.52-3.26-4.98-6.5-7.38-9.71,3.06,2.13,6.47,4.85,9.91,8.29,1.29,1.3,2.46,2.58,3.54,3.83.12,1.7.22,3.39.3,5.09-.17,0-.34-.02-.51-.03Zm.4-39.02c-.36-1.4-.75-2.8-1.15-4.2.66-2.18,1.65-4.75,3.15-7.47,1.98-3.6,4.21-6.3,6-8.17-.59,3.72-1.5,6.79-2.33,9.1-.68,1.88-1.66,4.59-3.64,7.79-.74,1.2-1.44,2.18-2.03,2.95Zm10.52,70.13c-2.78,3.12-5.53,5.93-8.18,8.45.26-1.35.5-2.7.73-4.04.76-1.05,1.73-2.29,3-3.6,2.18-2.27,3.76-3.24,6.88-5.8,1.46-1.2,3.53-2.96,5.93-5.26-2.43,3.27-5.2,6.71-8.36,10.25Z"></path></g></g></svg>