<svg xmlns="http://www.w3.org/2000/svg" width="312" height="193" viewBox="0 0 312 193" fill="none"><g clip-path="url(#clip0_21_19)"><path opacity="0.25" d="M177.25 192.16H227.25L291.43 0H241.43L177.25 192.16Z" fill="#918A93"></path><path d="M173.969 0L227.249 192.16H177.249L123.969 0" fill="#FA86CE"></path><path opacity="0.25" d="M123.969 0L70.6992 192.16H120.699L173.969 0" fill="#918A93"></path><path d="M120.879 192.16H70.8794L6.68945 0H56.6895L120.879 192.16Z" fill="#93C7FC"></path><path d="M183.88 116.37C174.16 114.17 164.43 111.98 154.71 109.78C158.93 109.85 192.76 109.74 204.99 109.32C207.86 108.23 223.95 102.37 241.18 96.1698C242.89 95.5498 262.74 86.6598 284.22 80.9698C288.35 79.8798 295.55 78.0898 302.82 81.3598C306.22 82.8898 308.72 85.1098 310.46 87.0898C310.74 87.4098 311.36 88.1998 311.4 88.6998C311.44 89.1998 310.91 89.4398 310.69 89.5398C303.49 92.8798 296.14 96.1898 288.63 99.4698C272.46 106.53 256.63 112.94 241.22 118.79C241.83 120.46 243 123.5 243 123.5C244.137 125.412 236.125 125.807 231.56 125.92C226.997 126.033 222.57 124.94 220.02 124.07C220.25 126.07 222.4 129.66 220.7 130.08C219 130.5 215.85 131.03 212.92 131.21C207.68 131.53 203.19 130.9 199.82 130.15C196.76 132.16 191.74 135.19 185.13 137.94C173.38 142.84 169.8 141.35 146.19 147.31C140.21 148.82 132.77 150.85 123.79 154.09C120.72 155.2 118.2 156.18 116.47 156.88C115.85 155.29 115.23 153.7 114.61 152.11C107.78 153.86 99.09 156.12 89.04 158.85C37.27 172.88 0.03001 185.42 1.00116e-05 185.33C-0.01999 185.25 29.92 175.48 136.14 141.07C129.75 140.99 123.36 140.91 116.98 140.83C116.6 140.86 113.84 141.05 111.88 138.95C111.71 138.77 109.86 136.74 110.36 135.04C110.96 133.04 114.77 131.72 119.8 132.78C111.99 127.95 104.17 123.11 96.36 118.28C95.65 117.84 94.94 117.4 94.23 116.96C94.35 116.43 94.47 115.9 94.59 115.36C96.35 114.82 98.82 114.16 101.81 113.67C104.74 113.19 111.06 112.19 118.3 113.48C121.65 114.08 124.06 114.96 129.68 117.35C135.08 119.65 142.32 122.85 150.89 127.05C151.17 127.22 151.88 127.58 152.84 127.55C153.87 127.52 154.59 127.06 154.86 126.87C164.54 123.37 174.22 119.87 183.9 116.37H183.88Z" fill="#3A6FC1"></path><path d="M0 185.33L127.46 140.96L136.14 141.07L0 185.33Z" fill="white"></path></g><defs><clipPath id="clip0_21_19"><rect width="311.4" height="192.16" fill="white"></rect></clipPath></defs></svg>